<?xml version="1.0" encoding="utf-8"?>
<!-- Generator: Adobe Illustrator 28.1.0, SVG Export Plug-In . SVG Version: 6.00 Build 0)  -->
<svg version="1.1" id="Calque_1" xmlns="http://www.w3.org/2000/svg" xmlns:xlink="http://www.w3.org/1999/xlink" x="0px" y="0px"
	 viewBox="0 0 841.99 841.89" style="enable-background:new 0 0 841.99 841.89;" xml:space="preserve">
<g>
	<g>
		<path d="M253.28,221.92l72.2,341.43l-2.72,6.94l76.29-348.37h45.87v1.6c-6.36,3.56-11.2,10.23-14.53,20.01
			c-3.33,9.79-4.54,20.54-3.63,32.28l24.98,300.35c1.21,12.8,3.48,22.41,6.81,28.81c3.33,6.4,7.72,11.56,13.17,15.47v1.6h-60.4v-1.6
			c4.84-3.2,9.08-8.18,12.72-14.94c3.63-6.75,4.84-16.54,3.63-29.34L399.5,234.72h3.63l-85.83,392.65h-2.27l-84.46-395.31l4.09,2.13
			L205.6,563.88c-1.21,15.3-0.08,27.74,3.41,37.34c3.48,9.6,7.64,16,12.49,19.21v1.6h-44.5v-1.6c6.66-4.27,11.65-10.94,14.99-20.01
			c3.33-9.07,5.6-21.25,6.81-36.54l24.98-288.62c0.91-11.38-0.23-21.96-3.41-31.74c-3.18-9.78-8.25-16.45-15.21-20.01v-1.6H253.28z"
			/>
		<path d="M626.1,622.03H497.58v-1.6c6.96-3.91,12.03-9.69,15.21-17.34c3.18-7.64,4.77-16.62,4.77-26.94V267.8
			c0-12.8-1.89-22.49-5.68-29.08c-3.79-6.58-8.56-11.65-14.3-15.2v-1.6h64.03v1.6c-5.75,3.56-10.6,8.63-14.53,15.2
			c-3.94,6.59-5.9,16.27-5.9,29.08v298.22c0,16.72,2.42,29.07,7.27,37.08c4.84,8,14.38,12,28.61,12c13.01,0,24.22-2.75,33.6-8.27
			c9.38-5.51,17.94-13.42,25.66-23.74c7.72-10.31,15.36-22.41,22.93-36.28l1.82,1.07l-7.72,89.09h-1.36
			c-1.82-4.98-4.92-8.72-9.31-11.2C638.28,623.27,632.75,622.03,626.1,622.03z"/>
	</g>
</g>
</svg>
