<?xml version="1.0" encoding="UTF-8"?>
<svg id="Calque_2" data-name="Calque 2" xmlns="http://www.w3.org/2000/svg" viewBox="0 0 81.82 86.03">
  <defs>
    <style>
      .cls-1 {
        fill: #be1622;
        stroke-width: 0px;
      }
    </style>
  </defs>
  <g id="Calque_1-2" data-name="Calque 1">
    <path class="cls-1" d="M74.37,70.84l7.45-12.9c-5.45-1.39-11.32-3.14-17.51-5.37-7.68-2.77-14.54-5.81-20.58-8.84.04-.2.07-.41.07-.63,0-.09-.02-.17-.03-.25,16.42-8.98,37.85-14.91,37.85-14.91l-7.45-12.9c-3.92,4.02-8.38,8.23-13.41,12.48-6.24,5.27-12.31,9.7-17.95,13.41-.2-.18-.42-.33-.66-.45.39-18.77,6.02-40.48,6.02-40.48h-14.9c1.52,5.41,2.94,11.37,4.1,17.85,1.46,8.12,2.26,15.66,2.65,22.45-.38.11-.73.3-1.03.55C23.11,31.11,7.45,15.69,7.45,15.69L0,28.59c5.45,1.39,11.32,3.14,17.51,5.37,7.63,2.75,14.45,5.77,20.46,8.78-.01.12-.04.24-.04.36,0,.1.02.2.03.3C21.55,52.36.19,58.27.19,58.27l7.45,12.9c3.92-4.02,8.38-8.23,13.41-12.48,6.23-5.26,12.28-9.67,17.91-13.38.25.22.54.4.86.52-.44,18.7-6.01,40.19-6.01,40.19h14.9c-1.52-5.41-2.94-11.37-4.1-17.85-1.45-8.08-2.25-15.59-2.64-22.35.21-.08.4-.18.58-.31,15.99,9.73,31.83,25.32,31.83,25.32Z"/>
  </g>
</svg>